<svg width="30" height="30" viewBox="0 0 30 30" fill="none" xmlns="http://www.w3.org/2000/svg">
<path fill-rule="evenodd" clip-rule="evenodd" d="M15 0C23.3333 0 30 6.66667 30 15C30 23.3333 23.3333 30 15 30C6.66667 30 0 23.3333 0 15C0 6.66667 6.66667 0 15 0ZM11.1667 5.83333H19C22 5.83333 24.3333 8.16667 24.3333 11V18.8333C24.3333 21.6667 22 24 19 24H11.1667C8.16667 24 5.83333 21.6667 5.83333 18.8333V11.1667C5.83333 8.16667 8.16667 5.83333 11.1667 5.83333ZM15 10.3333C17.6667 10.3333 19.8333 12.5 19.8333 15.1667C19.8333 17.8333 17.6667 20 15 20C12.3333 20 10 17.8333 10 15.1667C10 12.5 12.1667 10.3333 15 10.3333V10.3333ZM15 12.3333C16.5 12.3333 17.8333 13.6667 17.8333 15.1667C17.8333 16.6667 16.5 18 15 18C13.5 18 12.1667 16.6667 12.1667 15.1667C12.1667 13.6667 13.3333 12.3333 15 12.3333V12.3333ZM19.6667 9.5C20.1667 9.5 20.6667 9.83333 20.6667 10.5C20.6667 11 20.3333 11.5 19.6667 11.5C19.1667 11.5 18.6667 11.1667 18.6667 10.5C18.6667 9.83333 19.1667 9.5 19.6667 9.5ZM12 7.83333H18.1667C20.5 7.83333 22.3333 9.66667 22.3333 12V18.1667C22.3333 20.5 20.5 22.3333 18.1667 22.3333H12C9.66667 22.3333 7.83333 20.5 7.83333 18.1667V12C7.66667 9.66667 9.66667 7.83333 12 7.83333V7.83333Z" fill="white"/>
</svg>
