<svg width="30" height="30" viewBox="0 0 30 30" fill="none" xmlns="http://www.w3.org/2000/svg">
<path d="M30 15C30 23.3 23.3 30 15 30C6.7 30 0 23.3 0 15C0 6.7 6.7 0 15 0C23.3 0 30 6.7 30 15ZM11.3 7.8C11.3 6.6 10.3 5.6 8.8 5.6C7.3 5.6 6.3 6.5 6.3 7.8C6.3 9 7.3 10 8.8 10C10.3 10 11.3 9 11.3 7.8ZM10.6 11.9H6.9V22.5H10.7V11.9H10.6ZM24.4 16.9C24.4 13.5 22.7 11.3 20 11.3C18.5 11.3 17.4 12.2 16.9 13.6L16.8 12H13C13 12.4 13.1 14.5 13.1 14.5V22.6H16.9V17C16.9 15.5 17.6 14.5 18.7 14.5C19.8 14.5 20.6 15.1 20.6 17V22.6H24.4V16.9V16.9Z" fill="white"/>
</svg>
