<svg width="30" height="30" viewBox="0 0 30 30" fill="none" xmlns="http://www.w3.org/2000/svg">
<path d="M15 30C13.5 30 12.1 29.8 10.7 29.4C11.3 28.5 11.9 27.4 12.2 26.2C12.4 25.5 13.2 22.1 13.2 22.1C13.7 23.1 15.2 24 16.9 24C21.7 24 25 19.6 25 13.7C25 9.3 21.2 5.1 15.5 5.1C8.4 5 4.9 10.1 4.9 14.4C4.9 17 5.9 19.3 8 20.1C8.3 20.2 8.7 20.1 8.8 19.7C8.9 19.5 9 18.8 9.1 18.5C9.2 18.1 9.1 18 8.9 17.7C8.3 17 7.9 16.1 7.9 14.7C7.9 10.9 10.7 7.5 15.3 7.5C19.3 7.5 21.5 10 21.5 13.3C21.5 17.6 19.6 21.3 16.7 21.3C15.1 21.3 14 20 14.3 18.4C14.8 16.5 15.6 14.4 15.6 13.1C15.6 11.9 14.9 10.8 13.6 10.8C12 10.8 10.7 12.5 10.7 14.7C10.7 16.1 11.2 17.1 11.2 17.1C11.2 17.1 9.5 24 9.3 25.3C9 26.4 8.9 27.7 9 28.8C3.7 26.4 0 21.1 0 15C0 6.7 6.7 0 15 0C23.3 0 30 6.7 30 15C30 23.3 23.3 30 15 30Z" fill="white"/>
</svg>
