<svg width="30" height="30" viewBox="0 0 30 30" fill="none" xmlns="http://www.w3.org/2000/svg">
<path d="M30 15C30 23.3 23.3 30 15 30C6.7 30 0 23.3 0 15C0 6.7 6.7 0 15 0C23.3 0 30 6.7 30 15ZM26.3 9.5C25.5 9.8 24.7 10.1 23.8 10.2C24.7 9.7 25.3 8.8 25.6 7.8C24.8 8.3 23.9 8.6 22.9 8.8C22.1 8 21 7.4 19.8 7.4C17.4 7.4 15.6 9.3 15.6 11.7C15.6 12 15.6 12.4 15.7 12.7C12.2 12.5 9 10.8 6.9 8.2C6.6 8.9 6.3 9.6 6.3 10.4C6.3 11.9 7 13.2 8.2 13.9C7.5 13.9 6.8 13.7 6.3 13.4C6.3 15.5 7.8 17.2 9.7 17.6C9.4 17.7 9 17.7 8.6 17.7C8.3 17.7 8 17.7 7.8 17.6C8.3 19.3 9.9 20.4 11.8 20.5C10.3 21.6 8.5 22.4 6.5 22.4C6.2 22.4 5.8 22.4 5.5 22.3C7.4 23.5 9.6 24.2 12 24.2C19.8 24.2 24.1 17.7 24.1 12.1V11.5C25 11.1 25.7 10.3 26.3 9.5V9.5Z" fill="white"/>
</svg>
